<?xml version="1.0" encoding="UTF-8" standalone="no"?>
<!-- Created with Inkscape (http://www.inkscape.org/) -->

<svg
   version="1.1"
   id="svg2"
   width="237"
   height="641"
   viewBox="0 0 237 641"
   sodipodi:docname="pauza_cwierc_wektor.svg"
   inkscape:version="1.1 (c68e22c387, 2021-05-23)"
   xmlns:inkscape="http://www.inkscape.org/namespaces/inkscape"
   xmlns:sodipodi="http://sodipodi.sourceforge.net/DTD/sodipodi-0.dtd"
   xmlns="http://www.w3.org/2000/svg"
   xmlns:svg="http://www.w3.org/2000/svg">
  <defs
     id="defs6" />
  <sodipodi:namedview
     id="namedview4"
     pagecolor="#ffffff"
     bordercolor="#666666"
     borderopacity="1.0"
     inkscape:pageshadow="2"
     inkscape:pageopacity="0.0"
     inkscape:pagecheckerboard="0"
     showgrid="false"
     inkscape:zoom="1.174727"
     inkscape:cx="118.32537"
     inkscape:cy="320.5"
     inkscape:window-width="2560"
     inkscape:window-height="1547"
     inkscape:window-x="-8"
     inkscape:window-y="-8"
     inkscape:window-maximized="1"
     inkscape:current-layer="g8" />
  <g
     inkscape:groupmode="layer"
     inkscape:label="Image"
     id="g8">
    <path
       style="fill:#ff0000;stroke:none"
       d="m 119.70252,428.14874 c -26.791,5.836 -58.2977,2.035 -82.9979,15.055 -39.1671003,20.645 -37.39026031,83.246 -16.8051,115.945 16.5772,26.332 41.0394,46.537 65.803,64.835 4.6866,3.463 19.988,17.953 26.297,12.912 3.816,-3.049 0.027,-9.643 -1.711,-12.751 -6.445,-11.525 -15.0781,-21.818 -20.3737,-33.996 -10.8904,-25.045 3.3263,-56.611 22.8287,-73.303 24.846,-21.265 60.961,-19.802 89.959,-8.772 7.367,2.802 14.408,6.968 21.935,9.265 2.767,0.844 7.349,1.522 8.398,-2.15 1.293,-4.526 -3.455,-9.759 -5.897,-13.041 -7.422,-9.974 -14.934,-19.863 -22.137,-29.999 -16.995,-23.914 -33.327,-48.39 -47.675,-74 -8.004,-14.285 -16.784,-29.861 -20.269,-46 -9.7,-44.921 27.276,-93.638 50.867,-128 11.1,-16.168 27.067,-36.389 27.135,-57 0.045,-13.585 -10.574,-25.826 -18.403,-36 -18.771,-24.394 -39.786,-47.063402 -60.277,-70.000002 -12.734,-14.2542 -25.45,-28.5222 -37.9319,-42.9988 -4.0568,-4.7051 -9.6902,-13.9898497 -16.3632,-15.0593097 -4.2922,-0.68792 -4.8827,4.04261 -4.3922,7.1654097 1.1187,7.1234 4.6031,14.2138 7.2086,20.8927 12.2928,31.5118 26.9747,67.395299 19.9267,102.000002 -2.373,11.649 -9.8342,22.846 -15.7264,33 -12.9422,22.302 -27.984,43.281 -41.8478,65 -7.3695,11.545 -16.1531,23.629 -19.8252,37 -4.7497,17.296 5.5573,37.04 13.2961,52 20.462,39.556 48.3184,75.845 78.9783,108 z"
       id="path66"
       inkscape:export-filename="C:\Users\Slawek\Documents\Ksawery\png\pauza_cwierc_z_wektora.png"
       inkscape:export-xdpi="23.586977"
       inkscape:export-ydpi="23.586977" />
  </g>
</svg>
