<?xml version="1.0" encoding="UTF-8" standalone="no"?>
<!-- Created with Inkscape (http://www.inkscape.org/) -->

<svg
   version="1.1"
   id="svg2"
   width="56"
   height="120"
   viewBox="0 0 56 120"
   sodipodi:docname="pauza_szesnascie_wektor.svg"
   inkscape:version="1.1 (c68e22c387, 2021-05-23)"
   xmlns:inkscape="http://www.inkscape.org/namespaces/inkscape"
   xmlns:sodipodi="http://sodipodi.sourceforge.net/DTD/sodipodi-0.dtd"
   xmlns="http://www.w3.org/2000/svg"
   xmlns:svg="http://www.w3.org/2000/svg">
  <defs
     id="defs6" />
  <sodipodi:namedview
     id="namedview4"
     pagecolor="#ffffff"
     bordercolor="#666666"
     borderopacity="1.0"
     inkscape:pageshadow="2"
     inkscape:pageopacity="0.0"
     inkscape:pagecheckerboard="0"
     showgrid="false"
     inkscape:zoom="6.275"
     inkscape:cx="-16.89243"
     inkscape:cy="60"
     inkscape:window-width="2560"
     inkscape:window-height="1547"
     inkscape:window-x="-8"
     inkscape:window-y="-8"
     inkscape:window-maximized="1"
     inkscape:current-layer="g8" />
  <g
     inkscape:groupmode="layer"
     inkscape:label="Image"
     id="g8">
    <path
       style="fill:#ff0000;stroke:none;fill-opacity:1"
       d="m 44.521912,19.884462 c -2.2341,9.5635 -3.8912,21.057 -8.7415,29.6777 -1.7681,3.1428 -5.8301,8.1235 -10.0327,7.3039 -3.1777,-0.6197 -3.568,-5.49 -4.64,-7.8812 -2.751,-6.136 -9.7981,-10.0015 -15.77172,-5.4434 -8.28962,6.3253 -4.44833999,18.0825 4.31322,21.5449 8.1365,3.2153 16.6012,-0.5951 23.8727,-4.2019 l -16,57.999998 c 10.4314,-3.611 11.3455,-19.659998 14,-28.999998 8.1367,-28.6284 15.8734,-57.3688 24,-85.9999998 l -22,13.9999998 c 0.2908,-2.9778 0.6362,-5.9859 -0.084,-8.9366998 -3.923,-16.07567 -27.58841,-6.5019 -20.4286,7.6668998 0.9368,1.8538 2.343,3.4464 4.0006,4.6883 1.9272,1.4438 4.1852,2.3569 6.5382,2.8227 2.9411,0.5822 6.0149,0.4512 8.9543,-0.0663 4.2256,-0.7438 8.1266,-2.4399 12.0195,-4.1749 z"
       id="path300"
       inkscape:export-filename="C:\Users\Slawek\Documents\Ksawery\png\pauza_szesnascie_z_wektora.png"
       inkscape:export-xdpi="97.368881"
       inkscape:export-ydpi="97.368881" />
  </g>
</svg>
